<svg version="1.1" id="Layer_1" xmlns="http://www.w3.org/2000/svg" xmlns:xlink="http://www.w3.org/1999/xlink" x="0px" y="0px" height="337" width="1403" viewBox="0 0 862.6 207.1" style="enable-background:new 0 0 862.6 207.1;" xml:space="preserve">
            <path d="M170.3,65c-12.2-45.2-71.4-43.9-71.4-43.9c-78.7,0-73.8,82.4-73.8,82.4c0,85.2,73.8,82.6,73.8,82.6
              c74.3,0,76.4-69.4,76.4-69.4h-99V96.9h118.2v104.7H175v-37.9h-1.3c-10.1,43.1-74.8,40.8-74.8,40.8c-99.2,0-96.1-101.1-96.1-101.1
              C2.8-1.8,98.9,2.6,98.9,2.6c82.9,0,93.3,62.3,93.3,62.3H170.3z"></path>
            <path d="M406,103.4c0,60-38.7,101.1-95.9,101.1c-57.2,0-96.1-41-96.1-101.1c0-59.8,39-100.8,96.1-100.8
              C367.3,2.6,406,43.7,406,103.4z M383.9,103.4c0-50.1-28.8-82.4-73.8-82.4c-44.9,0-73.8,32.2-73.8,82.4c0,50.4,28.8,82.6,73.8,82.6
              C355,186,383.9,153.8,383.9,103.4z"></path>
            <path class="colon" d="M444.7,34.8L444.7,34.8c10.6,0,19.2,8.6,19.2,19.2v0.5c0,10.6-8.6,19.2-19.2,19.2h0c-10.6,0-19.2-8.6-19.2-19.2V54
              C425.4,43.4,434,34.8,444.7,34.8z M444.7,131.9L444.7,131.9c10.6,0,19.2,8.6,19.2,19.2v0.3c0,10.6-8.6,19.2-19.2,19.2h0
              c-10.6,0-19.2-8.6-19.2-19.2v-0.3C425.4,140.6,434,131.9,444.7,131.9z"></path>
            <path d="M675.3,103.4c0,60-38.7,101.1-95.9,101.1c-57.2,0-96.1-41-96.1-101.1c0-59.8,39-100.8,96.1-100.8
              C636.6,2.6,675.3,43.7,675.3,103.4z M653.3,103.4c0-50.1-28.8-82.4-73.8-82.4c-44.9,0-73.8,32.2-73.8,82.4
              c0,50.4,28.8,82.6,73.8,82.6C624.4,186,653.3,153.8,653.3,103.4z"></path>
            <path d="M859.8,103.4c0,58.2-37.9,98.2-93.5,98.2h-48.6h-20.3V5.5h20.3h48.6C821.9,5.5,859.8,45.2,859.8,103.4z M837.4,103.7
              c0-48.8-27.8-79.8-71.2-79.8h-48.6v159.3h48.6C809.7,183.2,837.4,152.3,837.4,103.7z"></path>
          </svg>